<?xml version="1.0" encoding="utf-8"?>
<!-- Generator: Adobe Illustrator 16.0.3, SVG Export Plug-In . SVG Version: 6.00 Build 0)  -->
<!DOCTYPE svg PUBLIC "-//W3C//DTD SVG 1.1//EN" "http://www.w3.org/Graphics/SVG/1.1/DTD/svg11.dtd">
<svg version="1.1" id="Layer_1" xmlns="http://www.w3.org/2000/svg" xmlns:xlink="http://www.w3.org/1999/xlink" x="0px" y="0px"
	 width="468.264px" height="275.755px" viewBox="0 0 468.264 275.755" enable-background="new 0 0 468.264 275.755"
	 xml:space="preserve">
<g>
	<path d="M286.554,118.876c-0.435,0.224-1.345,0.447-2.494,0.447c-2.661,0-4.65-1.681-4.65-4.791c0-2.969,2.004-4.958,4.931-4.958
		c1.163,0,1.919,0.252,2.241,0.421l-0.308,0.994c-0.448-0.225-1.106-0.393-1.892-0.393c-2.213,0-3.684,1.415-3.684,3.895
		c0,2.325,1.331,3.796,3.614,3.796c0.756,0,1.513-0.154,2.003-0.393L286.554,118.876z"/>
	<path d="M288.006,109.224h1.232v9.945h-1.232V109.224z"/>
	<path d="M291.872,111.144c-0.463,0-0.771-0.365-0.771-0.799s0.322-0.785,0.798-0.785c0.477,0,0.784,0.352,0.784,0.785
		s-0.308,0.799-0.798,0.799H291.872z M291.283,119.169v-6.779h1.232v6.779H291.283z"/>
	<path d="M294.559,114.225c0-0.714-0.014-1.274-0.056-1.835h1.093l0.069,1.107h0.028c0.336-0.631,1.12-1.262,2.241-1.262
		c0.938,0,2.396,0.561,2.396,2.886v4.048h-1.233v-3.908c0-1.092-0.406-2.017-1.568-2.017c-0.799,0-1.429,0.574-1.653,1.261
		c-0.056,0.154-0.084,0.379-0.084,0.574v4.09h-1.232V114.225z"/>
	<path d="M303.561,115.5h0.028c0.168-0.238,0.393-0.546,0.588-0.77l2.004-2.34h1.471l-2.62,2.787l2.984,3.992h-1.499l-2.325-3.264
		l-0.631,0.715v2.549h-1.232v-9.945h1.232V115.5z"/>
</g>
<path fill="#DADEE0" stroke="#000000" stroke-width="0.5" d="M295.189,29.6c-29.319,0-53.083,23.669-53.083,52.868
	c0,29.195,23.764,52.865,53.083,52.865c29.313,0,53.078-23.67,53.078-52.865C348.267,53.269,324.502,29.6,295.189,29.6z
	 M295.355,125.733c-23.899,0-43.271-19.294-43.271-43.095c0-23.802,19.371-43.096,43.271-43.096c23.896,0,43.27,19.294,43.27,43.096
	C338.625,106.439,319.251,125.733,295.355,125.733z"/>
<path fill="#7DAADB" stroke="#000000" stroke-width="0.5" d="M295.227,125.861c-23.899,0-43.271-19.294-43.271-43.095
	c0-3.06,0.326-6.044,0.935-8.923l-4.358-4.16l-5.612,3.011c-0.61,3.209-0.943,6.516-0.943,9.902
	c0,29.195,23.765,52.865,53.083,52.865c12.787,0,24.504-4.519,33.668-12.02l-5.732-7.633
	C315.48,122.08,305.797,125.861,295.227,125.861z"/>
<g>
	<path d="M176.302,118.876c-0.434,0.224-1.345,0.447-2.493,0.447c-2.662,0-4.65-1.681-4.65-4.791c0-2.969,2.003-4.958,4.931-4.958
		c1.163,0,1.919,0.252,2.241,0.421l-0.308,0.994c-0.448-0.225-1.107-0.393-1.891-0.393c-2.213,0-3.684,1.415-3.684,3.895
		c0,2.325,1.331,3.796,3.614,3.796c0.757,0,1.513-0.154,2.003-0.393L176.302,118.876z"/>
	<path d="M177.838,109.855c0.588-0.112,1.359-0.196,2.339-0.196c1.205,0,2.087,0.28,2.647,0.784c0.518,0.449,0.84,1.135,0.84,1.976
		c0,0.854-0.252,1.526-0.742,2.017c-0.645,0.687-1.695,1.037-2.886,1.037c-0.364,0-0.7-0.014-0.98-0.084v3.781h-1.219V109.855z
		 M179.057,114.394c0.266,0.069,0.616,0.098,1.009,0.098c1.484,0,2.367-0.729,2.367-2.004c0-1.26-0.883-1.862-2.228-1.862
		c-0.532,0-0.938,0.056-1.148,0.098V114.394z"/>
</g>
<path fill="#DADEE0" stroke="#000000" stroke-width="0.5" d="M174.814,29.6c-29.319,0-53.083,23.669-53.083,52.868
	c0,29.195,23.764,52.865,53.083,52.865c29.313,0,53.078-23.67,53.078-52.865C227.892,53.269,204.127,29.6,174.814,29.6z
	 M174.98,125.733c-23.899,0-43.271-19.294-43.271-43.095c0-23.802,19.371-43.096,43.271-43.096
	c23.896,0,43.269,19.294,43.269,43.096C218.25,106.439,198.876,125.733,174.98,125.733z"/>
<path fill="#48BB8D" stroke="#000000" stroke-width="0.5" d="M174.852,125.86c-23.899,0-43.271-19.293-43.271-43.094
	c0-3.06,0.327-6.044,0.936-8.923l-4.358-4.16l-5.612,3.011c-0.611,3.209-0.943,6.516-0.943,9.902
	c0,29.195,23.764,52.864,53.083,52.864c12.787,0,24.504-4.519,33.667-12.019l-5.732-7.633
	C195.105,122.08,185.422,125.86,174.852,125.86z"/>
<g>
	<path d="M43.671,115.024c-0.07-1.317-0.154-2.914-0.154-4.077h-0.028c-0.336,1.094-0.714,2.284-1.191,3.586l-1.667,4.581h-0.925
		l-1.541-4.496c-0.448-1.345-0.813-2.55-1.079-3.671H37.06c-0.028,1.178-0.098,2.746-0.182,4.175l-0.252,4.048h-1.163l0.658-9.44
		h1.555l1.611,4.566c0.392,1.163,0.7,2.199,0.952,3.18h0.028c0.252-0.952,0.588-1.989,1.008-3.18l1.681-4.566h1.555l0.588,9.44
		h-1.205L43.671,115.024z"/>
	<path d="M49.786,114.939v0.896h-3.459v-0.896H49.786z"/>
	<path d="M51.269,109.869c0.617-0.126,1.513-0.21,2.339-0.21c1.303,0,2.157,0.253,2.746,0.784c0.462,0.406,0.742,1.051,0.742,1.793
		c0,1.232-0.798,2.06-1.779,2.396v0.042c0.714,0.252,1.148,0.925,1.387,1.905c0.308,1.316,0.532,2.228,0.714,2.591h-1.261
		c-0.154-0.266-0.364-1.078-0.616-2.255c-0.28-1.303-0.798-1.793-1.905-1.835h-1.148v4.09h-1.219V109.869z M52.487,114.156h1.247
		c1.303,0,2.129-0.715,2.129-1.793c0-1.219-0.883-1.752-2.171-1.752c-0.588,0-0.995,0.057-1.205,0.112V114.156z"/>
	<path d="M63.675,114.744h-3.656v3.404h4.09v1.021h-5.323v-9.44h5.112v1.022h-3.88v2.983h3.656V114.744z"/>
	<path d="M65.688,109.855c0.588-0.112,1.359-0.196,2.339-0.196c1.205,0,2.087,0.28,2.647,0.784c0.518,0.449,0.84,1.135,0.84,1.976
		c0,0.854-0.252,1.526-0.742,2.017c-0.645,0.687-1.695,1.037-2.886,1.037c-0.364,0-0.7-0.014-0.98-0.084v3.781h-1.219V109.855z
		 M66.907,114.394c0.266,0.069,0.616,0.098,1.009,0.098c1.484,0,2.367-0.729,2.367-2.004c0-1.26-0.883-1.862-2.228-1.862
		c-0.532,0-0.938,0.056-1.148,0.098V114.394z"/>
</g>
<path fill="#EAEDEE" stroke="#000000" stroke-width="0.5" d="M54.457,29.6c-29.319,0-53.083,23.669-53.083,52.868
	c0,29.195,23.765,52.865,53.083,52.865c29.313,0,53.078-23.67,53.078-52.865C107.535,53.269,83.77,29.6,54.457,29.6z
	 M54.623,125.733c-23.899,0-43.271-19.294-43.271-43.095c0-23.802,19.372-43.096,43.271-43.096
	c23.896,0,43.269,19.294,43.269,43.096C97.892,106.439,78.519,125.733,54.623,125.733z"/>
<path fill="#778384" stroke="#000000" stroke-width="0.5" d="M88.591,41.99l-6.565,7.295c9.681,7.903,15.86,19.904,15.86,33.345
	c0,23.8-19.373,43.094-43.269,43.094c-23.899,0-43.271-19.294-43.271-43.094c0-16.203,8.993-30.289,22.264-37.647l2.554-7.353
	l-5.871-2.243C13.125,44.144,1.368,61.928,1.368,82.459c0,29.194,23.764,52.865,53.083,52.865c29.314,0,53.078-23.671,53.078-52.865
	C107.529,66.214,100.167,51.688,88.591,41.99z"/>
<g>
	<path d="M43.938,258.727v-9.441h1.345l3.012,4.777c0.687,1.106,1.247,2.087,1.681,3.067l0.042-0.015
		c-0.112-1.26-0.14-2.409-0.14-3.865v-3.965h1.148v9.441h-1.232l-2.998-4.791c-0.659-1.05-1.289-2.129-1.751-3.151l-0.042,0.014
		c0.07,1.191,0.084,2.326,0.084,3.895v4.034H43.938z"/>
	<path d="M52.997,257.243c0.546,0.35,1.331,0.616,2.171,0.616c1.247,0,1.975-0.645,1.975-1.611c0-0.868-0.504-1.387-1.779-1.863
		c-1.541-0.56-2.493-1.372-2.493-2.689c0-1.471,1.218-2.563,3.053-2.563c0.953,0,1.667,0.224,2.073,0.462l-0.336,0.994
		c-0.294-0.182-0.925-0.448-1.779-0.448c-1.289,0-1.779,0.771-1.779,1.415c0,0.883,0.574,1.316,1.877,1.821
		c1.597,0.63,2.396,1.387,2.396,2.773c0,1.457-1.065,2.731-3.292,2.731c-0.911,0-1.905-0.28-2.409-0.616L52.997,257.243z"/>
	<path d="M60.052,249.412c0.588-0.111,1.359-0.195,2.339-0.195c1.205,0,2.087,0.279,2.647,0.784c0.518,0.448,0.84,1.135,0.84,1.975
		c0,0.854-0.252,1.527-0.742,2.018c-0.645,0.687-1.695,1.036-2.886,1.036c-0.364,0-0.7-0.014-0.98-0.084v3.782h-1.219V249.412z
		 M61.271,253.951c0.266,0.07,0.616,0.098,1.009,0.098c1.484,0,2.367-0.729,2.367-2.003c0-1.261-0.883-1.863-2.228-1.863
		c-0.532,0-0.938,0.057-1.148,0.099V253.951z"/>
</g>
<path fill="#DADEE0" stroke="#000000" stroke-width="0.5" d="M54.517,169.084c-29.319,0-53.083,23.668-53.083,52.867
	c0,29.195,23.764,52.865,53.083,52.865c29.314,0,53.078-23.67,53.078-52.865C107.595,192.752,83.831,169.084,54.517,169.084z
	 M54.684,265.217c-23.899,0-43.271-19.294-43.271-43.095c0-23.802,19.371-43.096,43.271-43.096
	c23.896,0,43.269,19.294,43.269,43.096C97.953,245.923,78.58,265.217,54.684,265.217z"/>
<path fill="#E8AECF" stroke="#000000" stroke-width="0.5" d="M54.555,265.343c-23.899,0-43.271-19.292-43.271-43.092
	c0-3.062,0.326-6.044,0.935-8.925l-4.358-4.159l-5.612,3.011c-0.61,3.208-0.943,6.516-0.943,9.901
	c0,29.195,23.764,52.864,53.083,52.864c12.787,0,24.504-4.519,33.667-12.019l-5.732-7.633
	C74.808,261.564,65.125,265.343,54.555,265.343z"/>
<g>
	<path d="M169.671,249.286v5.604c0,2.101,0.938,2.997,2.199,2.997c1.387,0,2.297-0.924,2.297-2.997v-5.604h1.232v5.52
		c0,2.899-1.527,4.076-3.572,4.076c-1.933,0-3.39-1.093-3.39-4.034v-5.562H169.671z"/>
	<path d="M179.751,250.771h-0.028l-1.583,0.854l-0.238-0.938l1.989-1.064h1.051v9.104h-1.191V250.771z"/>
</g>
<path fill="#DADEE0" stroke="#000000" stroke-width="0.5" d="M174.814,169.646c-29.319,0-53.083,23.669-53.083,52.867
	c0,29.195,23.764,52.865,53.083,52.865c29.313,0,53.078-23.67,53.078-52.865C227.892,193.315,204.127,169.646,174.814,169.646z
	 M174.98,265.779c-23.899,0-43.271-19.294-43.271-43.095c0-23.802,19.371-43.096,43.271-43.096
	c23.896,0,43.269,19.294,43.269,43.096C218.25,246.485,198.876,265.779,174.98,265.779z"/>
<path fill="#E8AECF" stroke="#000000" stroke-width="0.5" d="M174.852,265.906c-23.899,0-43.271-19.292-43.271-43.093
	c0-3.062,0.327-6.044,0.936-8.925l-4.358-4.158l-5.612,3.01c-0.611,3.209-0.943,6.516-0.943,9.902
	c0,29.195,23.764,52.863,53.083,52.863c12.787,0,24.504-4.518,33.667-12.019l-5.732-7.633
	C195.105,262.125,185.422,265.906,174.852,265.906z"/>
<g>
	<path d="M289.6,249.286v5.604c0,2.101,0.938,2.997,2.199,2.997c1.387,0,2.297-0.924,2.297-2.997v-5.604h1.233v5.52
		c0,2.899-1.527,4.076-3.572,4.076c-1.933,0-3.39-1.093-3.39-4.034v-5.562H289.6z"/>
	<path d="M297.004,258.727v-0.757l0.967-0.938c2.325-2.213,3.39-3.39,3.39-4.762c0-0.925-0.434-1.779-1.793-1.779
		c-0.826,0-1.513,0.42-1.933,0.771l-0.393-0.869c0.616-0.518,1.527-0.924,2.578-0.924c1.946,0,2.773,1.345,2.773,2.647
		c0,1.681-1.219,3.039-3.138,4.889l-0.715,0.672v0.028h4.076v1.022H297.004z"/>
</g>
<path fill="#DADEE0" stroke="#000000" stroke-width="0.5" d="M295.125,168.374c-29.318,0-53.082,23.669-53.082,52.867
	c0,29.195,23.764,52.866,53.082,52.866c29.314,0,53.078-23.671,53.078-52.866C348.203,192.042,324.439,168.374,295.125,168.374z
	 M295.292,264.506c-23.9,0-43.271-19.294-43.271-43.094c0-23.803,19.371-43.096,43.271-43.096c23.896,0,43.268,19.293,43.268,43.096
	C338.56,245.212,319.189,264.506,295.292,264.506z"/>
<path fill="#E8AECF" stroke="#000000" stroke-width="0.5" d="M323.112,254.425c-7.517,6.271-17.199,10.052-27.768,10.052
	c-23.082,0-41.935-17.995-43.199-40.665l-5.35-4.601l-4.658,3.727c0.917,28.395,24.302,51.139,53.038,51.139
	c12.787,0,24.506-4.518,33.668-12.019L323.112,254.425z"/>
<g>
	<path d="M408.669,249.286v5.604c0,2.101,0.938,2.997,2.199,2.997c1.387,0,2.297-0.924,2.297-2.997v-5.604h1.233v5.52
		c0,2.899-1.527,4.076-3.572,4.076c-1.933,0-3.39-1.093-3.39-4.034v-5.562H408.669z"/>
	<path d="M419.884,258.727v-2.479h-4.23v-0.798l4.063-5.827h1.33v5.673h1.275v0.952h-1.275v2.479H419.884z M419.884,255.295v-3.054
		c0-0.477,0.014-0.953,0.042-1.429h-0.042c-0.28,0.532-0.504,0.924-0.757,1.358l-2.227,3.096v0.028H419.884z"/>
</g>
<path fill="#DADEE0" stroke="#000000" stroke-width="0.5" d="M414.936,169.084c-29.319,0-53.083,23.668-53.083,52.867
	c0,29.195,23.764,52.865,53.083,52.865c29.313,0,53.078-23.67,53.078-52.865C468.014,192.752,444.25,169.084,414.936,169.084z
	 M415.102,265.217c-23.899,0-43.271-19.294-43.271-43.095c0-23.802,19.371-43.096,43.271-43.096c23.896,0,43.27,19.294,43.27,43.096
	C458.372,245.923,438.999,265.217,415.102,265.217z"/>
<g id="XMLID_1_">
	<g>
		<path fill="#E8AECF" d="M437.293,259.444l4.774,8.268c-11.288,6.496-24.972,8.892-38.673,5.669
			c-7.323-1.721-13.938-4.876-19.606-9.095l0.472-6.445l6.159-0.742c4.488,3.206,9.635,5.636,15.338,6.985
			C416.927,266.699,428.097,264.742,437.293,259.444z"/>
	</g>
	<g>
		<path fill="none" stroke="#000000" stroke-width="0.5" d="M405.757,264.083c-5.703-1.35-10.85-3.779-15.338-6.985l-6.159,0.742
			l-0.472,6.445c5.669,4.219,12.283,7.374,19.606,9.095c13.701,3.223,27.385,0.827,38.673-5.669l-4.774-8.268
			C428.097,264.742,416.927,266.699,405.757,264.083z"/>
	</g>
</g>
<g>
	<path d="M414.563,115.024c-0.069-1.317-0.153-2.914-0.153-4.077h-0.028c-0.336,1.094-0.715,2.284-1.19,3.586l-1.667,4.581h-0.925
		l-1.541-4.496c-0.448-1.345-0.813-2.55-1.078-3.671h-0.028c-0.028,1.178-0.098,2.746-0.182,4.175l-0.253,4.048h-1.162l0.658-9.44
		h1.555l1.611,4.566c0.392,1.163,0.7,2.199,0.952,3.18h0.028c0.252-0.952,0.588-1.989,1.009-3.18l1.681-4.566h1.555l0.588,9.44
		h-1.204L414.563,115.024z"/>
	<path d="M417.863,109.855c0.589-0.112,1.358-0.196,2.34-0.196c1.204,0,2.087,0.28,2.646,0.784c0.519,0.449,0.841,1.135,0.841,1.976
		c0,0.854-0.252,1.526-0.742,2.017c-0.645,0.687-1.695,1.037-2.886,1.037c-0.364,0-0.7-0.014-0.98-0.084v3.781h-1.219V109.855z
		 M419.082,114.394c0.267,0.069,0.616,0.098,1.009,0.098c1.484,0,2.367-0.729,2.367-2.004c0-1.26-0.883-1.862-2.228-1.862
		c-0.532,0-0.938,0.056-1.148,0.098V114.394z"/>
</g>
<path fill="#DADEE0" stroke="#000000" stroke-width="0.5" d="M414.936,30.756c-29.319,0-53.083,23.67-53.083,52.868
	c0,29.195,23.764,52.865,53.083,52.865c29.313,0,53.078-23.67,53.078-52.865C468.014,54.426,444.25,30.756,414.936,30.756z
	 M415.102,126.889c-23.899,0-43.271-19.294-43.271-43.094c0-23.802,19.371-43.096,43.271-43.096c23.896,0,43.27,19.294,43.27,43.096
	C458.372,107.595,438.999,126.889,415.102,126.889z"/>
<g id="XMLID_3_">
	<g>
		<path fill="#9CCBB5" d="M439.036,119.917l5.28,7.703c-10.748,7.061-24.117,10.302-37.872,8.091
			c-7.352-1.18-14.097-3.799-19.979-7.514l0.044-6.286l6.039-1.133c4.647,2.811,9.894,4.824,15.62,5.752
			C419.381,128.322,430.294,125.674,439.036,119.917z"/>
	</g>
	<g>
		<path fill="none" stroke="#000000" stroke-width="0.5" d="M408.168,126.531c-5.727-0.928-10.973-2.941-15.62-5.752l-6.039,1.133
			l-0.044,6.286c5.882,3.715,12.627,6.334,19.979,7.514c13.755,2.211,27.124-1.03,37.872-8.091l-5.28-7.703
			C430.294,125.674,419.381,128.322,408.168,126.531z"/>
	</g>
</g>
<g>
</g>
<g>
	<path d="M29.246,74.815c1.026-0.152,2.223-0.267,3.534-0.267c2.375,0,4.065,0.532,5.186,1.577c1.159,1.045,1.824,2.546,1.824,4.616
		c0,2.09-0.665,3.8-1.843,4.978c-1.216,1.196-3.191,1.843-5.68,1.843c-1.197,0-2.166-0.038-3.021-0.152V74.815z M30.918,86.156
		c0.418,0.076,1.026,0.076,1.671,0.076c3.534,0.019,5.453-1.976,5.453-5.434c0.019-3.059-1.691-4.938-5.187-4.938
		c-0.855,0-1.5,0.075-1.938,0.171V86.156z"/>
	<path d="M41.919,87.448V74.644h1.824l4.084,6.478c0.931,1.501,1.69,2.831,2.279,4.16l0.057-0.019
		c-0.152-1.71-0.19-3.268-0.19-5.243v-5.376h1.558v12.804H49.86l-4.065-6.497c-0.893-1.425-1.748-2.888-2.375-4.274l-0.057,0.02
		c0.095,1.614,0.114,3.153,0.114,5.28v5.472H41.919z"/>
	<path d="M56.492,83.42l-1.33,4.027h-1.709l4.35-12.804h1.995l4.37,12.804H62.4l-1.368-4.027H56.492z M60.69,82.128l-1.273-3.686
		c-0.266-0.836-0.456-1.596-0.646-2.337h-0.057c-0.171,0.741-0.38,1.539-0.627,2.318l-1.254,3.704H60.69z"/>
	<path d="M69.867,81.71v1.216h-4.692V81.71H69.867z"/>
	<path d="M71.882,74.833c0.836-0.171,2.052-0.285,3.172-0.285c1.767,0,2.926,0.342,3.724,1.064c0.627,0.551,1.007,1.425,1.007,2.432
		c0,1.672-1.083,2.792-2.413,3.248v0.058c0.969,0.342,1.558,1.253,1.88,2.583c0.418,1.786,0.722,3.021,0.969,3.515h-1.71
		c-0.209-0.361-0.494-1.463-0.836-3.059c-0.38-1.767-1.083-2.432-2.583-2.488h-1.558v5.547h-1.653V74.833z M73.535,80.647h1.69
		c1.767,0,2.888-0.969,2.888-2.432c0-1.653-1.197-2.375-2.944-2.375c-0.798,0-1.349,0.076-1.634,0.152V80.647z"/>
</g>
<g>
	<path d="M149.679,75.026c1.026-0.152,2.223-0.267,3.534-0.267c2.375,0,4.065,0.532,5.186,1.577
		c1.159,1.045,1.824,2.546,1.824,4.616c0,2.09-0.665,3.8-1.843,4.978c-1.216,1.196-3.191,1.843-5.68,1.843
		c-1.197,0-2.166-0.038-3.021-0.152V75.026z M151.351,86.367c0.418,0.076,1.026,0.076,1.671,0.076
		c3.534,0.019,5.453-1.976,5.453-5.434c0.019-3.059-1.691-4.938-5.187-4.938c-0.855,0-1.5,0.075-1.938,0.171V86.367z"/>
	<path d="M162.352,87.659V74.855h1.824l4.084,6.478c0.931,1.501,1.69,2.831,2.279,4.16l0.057-0.019
		c-0.152-1.71-0.19-3.268-0.19-5.243v-5.376h1.558v12.804h-1.671l-4.065-6.497c-0.893-1.425-1.748-2.888-2.375-4.274l-0.057,0.02
		c0.095,1.614,0.114,3.153,0.114,5.28v5.472H162.352z"/>
	<path d="M176.924,83.631l-1.33,4.027h-1.709l4.35-12.804h1.995l4.369,12.804h-1.767l-1.368-4.027H176.924z M181.123,82.339
		l-1.272-3.686c-0.267-0.836-0.456-1.596-0.646-2.337h-0.057c-0.171,0.741-0.38,1.539-0.627,2.318l-1.254,3.704H181.123z"/>
	<path d="M190.3,81.921v1.216h-4.692v-1.216H190.3z"/>
	<path d="M192.105,85.645c0.741,0.475,1.805,0.836,2.945,0.836c1.69,0,2.679-0.874,2.679-2.185c0-1.178-0.685-1.881-2.413-2.526
		c-2.09-0.761-3.382-1.862-3.382-3.647c0-1.995,1.653-3.477,4.142-3.477c1.292,0,2.261,0.304,2.812,0.627l-0.456,1.349
		c-0.398-0.247-1.254-0.608-2.412-0.608c-1.748,0-2.413,1.045-2.413,1.919c0,1.197,0.779,1.786,2.546,2.47
		c2.166,0.854,3.248,1.881,3.248,3.762c0,1.976-1.443,3.704-4.464,3.704c-1.234,0-2.584-0.38-3.268-0.836L192.105,85.645z"/>
</g>
<g>
	<path d="M271.587,75.87c1.025-0.152,2.223-0.267,3.533-0.267c2.375,0,4.065,0.532,5.187,1.577c1.159,1.045,1.823,2.546,1.823,4.616
		c0,2.09-0.664,3.8-1.842,4.978c-1.216,1.196-3.192,1.843-5.681,1.843c-1.197,0-2.166-0.038-3.021-0.152V75.87z M273.259,87.21
		c0.418,0.076,1.025,0.076,1.672,0.076c3.533,0.019,5.452-1.976,5.452-5.434c0.019-3.059-1.691-4.938-5.187-4.938
		c-0.854,0-1.501,0.075-1.938,0.171V87.21z"/>
	<path d="M284.259,88.502V75.699h1.824l4.084,6.478c0.932,1.501,1.691,2.831,2.28,4.16l0.057-0.019
		c-0.152-1.71-0.189-3.268-0.189-5.243v-5.376h1.558v12.804h-1.672l-4.065-6.497c-0.893-1.425-1.748-2.888-2.375-4.274l-0.057,0.02
		c0.095,1.614,0.114,3.153,0.114,5.28v5.472H284.259z"/>
	<path d="M298.833,84.475l-1.33,4.027h-1.71l4.351-12.804h1.995l4.369,12.804h-1.767l-1.368-4.027H298.833z M303.031,83.183
		l-1.272-3.686c-0.267-0.836-0.456-1.596-0.646-2.337h-0.057c-0.171,0.741-0.38,1.539-0.627,2.318l-1.254,3.704H303.031z"/>
	<path d="M312.208,82.765v1.216h-4.692v-1.216H312.208z"/>
	<path d="M323.151,88.103c-0.589,0.305-1.823,0.608-3.381,0.608c-3.609,0-6.308-2.279-6.308-6.497c0-4.027,2.717-6.725,6.688-6.725
		c1.576,0,2.603,0.342,3.039,0.569l-0.418,1.349c-0.607-0.304-1.5-0.531-2.564-0.531c-3.001,0-4.996,1.918-4.996,5.281
		c0,3.153,1.805,5.147,4.901,5.147c1.025,0,2.052-0.209,2.717-0.531L323.151,88.103z"/>
</g>
<g>
	<path d="M389.699,75.026c1.025-0.152,2.223-0.267,3.533-0.267c2.375,0,4.065,0.532,5.187,1.577
		c1.159,1.045,1.823,2.546,1.823,4.616c0,2.09-0.664,3.8-1.842,4.978c-1.216,1.196-3.192,1.843-5.681,1.843
		c-1.197,0-2.166-0.038-3.021-0.152V75.026z M391.371,86.367c0.418,0.076,1.025,0.076,1.672,0.076
		c3.533,0.019,5.452-1.976,5.452-5.434c0.019-3.059-1.691-4.938-5.187-4.938c-0.854,0-1.501,0.075-1.938,0.171V86.367z"/>
	<path d="M402.371,87.659V74.855h1.824l4.084,6.478c0.932,1.501,1.691,2.831,2.28,4.16l0.057-0.019
		c-0.152-1.71-0.189-3.268-0.189-5.243v-5.376h1.558v12.804h-1.672l-4.065-6.497c-0.893-1.425-1.748-2.888-2.375-4.274l-0.057,0.02
		c0.095,1.614,0.114,3.153,0.114,5.28v5.472H402.371z"/>
	<path d="M416.944,83.631l-1.33,4.027h-1.71l4.351-12.804h1.995l4.369,12.804h-1.767l-1.368-4.027H416.944z M421.142,82.339
		l-1.272-3.686c-0.267-0.836-0.456-1.596-0.646-2.337h-0.057c-0.171,0.741-0.38,1.539-0.627,2.318l-1.254,3.704H421.142z"/>
	<path d="M430.32,81.921v1.216h-4.692v-1.216H430.32z"/>
	<path d="M443.125,82.036c-0.095-1.786-0.209-3.951-0.209-5.528h-0.038c-0.456,1.481-0.969,3.097-1.615,4.863l-2.261,6.212h-1.253
		l-2.09-6.098c-0.608-1.824-1.103-3.458-1.463-4.978h-0.038c-0.038,1.596-0.133,3.724-0.247,5.661l-0.342,5.49h-1.577l0.894-12.804
		h2.108l2.185,6.192c0.532,1.577,0.95,2.982,1.292,4.313h0.038c0.342-1.292,0.798-2.697,1.367-4.313l2.28-6.192h2.108l0.798,12.804
		h-1.634L443.125,82.036z"/>
</g>
<g>
	<path d="M28.402,214.049c1.026-0.152,2.223-0.267,3.534-0.267c2.375,0,4.065,0.532,5.186,1.577
		c1.159,1.045,1.824,2.546,1.824,4.616c0,2.09-0.665,3.8-1.843,4.978c-1.216,1.196-3.191,1.843-5.68,1.843
		c-1.197,0-2.166-0.038-3.021-0.152V214.049z M30.074,225.39c0.418,0.076,1.026,0.076,1.671,0.076
		c3.534,0.019,5.453-1.976,5.453-5.434c0.019-3.059-1.691-4.938-5.187-4.938c-0.855,0-1.5,0.075-1.938,0.171V225.39z"/>
	<path d="M41.075,226.682v-12.804h1.824l4.084,6.478c0.931,1.501,1.69,2.831,2.279,4.16l0.057-0.019
		c-0.152-1.71-0.19-3.268-0.19-5.243v-5.376h1.558v12.804h-1.671l-4.065-6.497c-0.893-1.425-1.748-2.888-2.375-4.274l-0.057,0.02
		c0.095,1.614,0.114,3.153,0.114,5.28v5.472H41.075z"/>
	<path d="M55.648,222.655l-1.33,4.027h-1.709l4.35-12.804h1.995l4.37,12.804h-1.767l-1.368-4.027H55.648z M59.846,221.363
		l-1.273-3.686c-0.266-0.836-0.456-1.596-0.646-2.337h-0.057c-0.171,0.741-0.38,1.539-0.627,2.318l-1.254,3.704H59.846z"/>
	<path d="M69.023,220.945v1.216h-4.692v-1.216H69.023z"/>
	<path d="M71.038,226.682v-12.804h1.824l4.084,6.478c0.931,1.501,1.69,2.831,2.279,4.16l0.057-0.019
		c-0.152-1.71-0.19-3.268-0.19-5.243v-5.376h1.558v12.804h-1.671l-4.065-6.497c-0.893-1.425-1.748-2.888-2.375-4.274l-0.057,0.02
		c0.095,1.614,0.114,3.153,0.114,5.28v5.472H71.038z"/>
</g>
<g>
	<path d="M146.515,214.893c1.026-0.152,2.223-0.267,3.534-0.267c2.375,0,4.065,0.532,5.186,1.577
		c1.159,1.045,1.824,2.546,1.824,4.616c0,2.09-0.665,3.8-1.843,4.978c-1.216,1.196-3.191,1.843-5.68,1.843
		c-1.197,0-2.166-0.038-3.021-0.152V214.893z M148.187,226.234c0.418,0.076,1.026,0.076,1.671,0.076
		c3.534,0.019,5.453-1.976,5.453-5.434c0.019-3.059-1.691-4.938-5.187-4.938c-0.855,0-1.5,0.075-1.938,0.171V226.234z"/>
	<path d="M159.188,227.526v-12.804h1.824l4.084,6.478c0.931,1.501,1.69,2.831,2.279,4.16l0.057-0.019
		c-0.152-1.71-0.19-3.268-0.19-5.243v-5.376h1.558v12.804h-1.671l-4.065-6.497c-0.893-1.425-1.748-2.888-2.375-4.274l-0.057,0.02
		c0.095,1.614,0.114,3.153,0.114,5.28v5.472H159.188z"/>
	<path d="M173.761,223.499l-1.33,4.027h-1.709l4.35-12.804h1.995l4.369,12.804h-1.767l-1.367-4.027H173.761z M177.958,222.207
		l-1.272-3.686c-0.266-0.836-0.456-1.596-0.646-2.337h-0.057c-0.171,0.741-0.38,1.539-0.627,2.318l-1.254,3.704H177.958z"/>
	<path d="M187.137,221.789v1.216h-4.692v-1.216H187.137z"/>
	<path d="M190.804,214.722v7.599c0,2.85,1.272,4.065,2.982,4.065c1.881,0,3.115-1.254,3.115-4.065v-7.599h1.672v7.484
		c0,3.933-2.07,5.528-4.844,5.528c-2.622,0-4.598-1.481-4.598-5.472v-7.541H190.804z"/>
	<path d="M204.484,216.736h-0.038l-2.146,1.158l-0.323-1.272l2.697-1.444h1.425v12.349h-1.614V216.736z"/>
</g>
<g>
	<path d="M264.346,214.893c1.025-0.152,2.223-0.267,3.533-0.267c2.375,0,4.065,0.532,5.187,1.577
		c1.159,1.045,1.823,2.546,1.823,4.616c0,2.09-0.664,3.8-1.842,4.978c-1.216,1.196-3.192,1.843-5.681,1.843
		c-1.197,0-2.166-0.038-3.021-0.152V214.893z M266.018,226.234c0.418,0.076,1.025,0.076,1.672,0.076
		c3.533,0.019,5.452-1.976,5.452-5.434c0.019-3.059-1.691-4.938-5.187-4.938c-0.854,0-1.501,0.075-1.938,0.171V226.234z"/>
	<path d="M277.018,227.526v-12.804h1.824l4.084,6.478c0.932,1.501,1.691,2.831,2.28,4.16l0.057-0.019
		c-0.152-1.71-0.189-3.268-0.189-5.243v-5.376h1.558v12.804h-1.672l-4.065-6.497c-0.893-1.425-1.748-2.888-2.375-4.274l-0.057,0.02
		c0.095,1.614,0.114,3.153,0.114,5.28v5.472H277.018z"/>
	<path d="M291.591,223.499l-1.33,4.027h-1.71l4.351-12.804h1.995l4.369,12.804H297.5l-1.368-4.027H291.591z M295.79,222.207
		l-1.272-3.686c-0.267-0.836-0.456-1.596-0.646-2.337h-0.057c-0.171,0.741-0.38,1.539-0.627,2.318l-1.254,3.704H295.79z"/>
	<path d="M304.967,221.789v1.216h-4.692v-1.216H304.967z"/>
	<path d="M308.634,214.722v7.599c0,2.85,1.272,4.065,2.982,4.065c1.881,0,3.115-1.254,3.115-4.065v-7.599h1.672v7.484
		c0,3.933-2.07,5.528-4.844,5.528c-2.622,0-4.598-1.481-4.598-5.472v-7.541H308.634z"/>
	<path d="M318.685,227.526V226.5l1.312-1.273c3.153-3.001,4.597-4.597,4.597-6.459c0-1.254-0.589-2.412-2.432-2.412
		c-1.12,0-2.052,0.569-2.621,1.044l-0.532-1.178c0.836-0.702,2.07-1.254,3.495-1.254c2.641,0,3.762,1.824,3.762,3.591
		c0,2.28-1.652,4.122-4.255,6.63l-0.969,0.912v0.038h5.527v1.387H318.685z"/>
</g>
<g>
	<path d="M387.802,214.049c1.025-0.152,2.223-0.267,3.533-0.267c2.375,0,4.065,0.532,5.187,1.577
		c1.159,1.045,1.823,2.546,1.823,4.616c0,2.09-0.664,3.8-1.842,4.978c-1.216,1.196-3.192,1.843-5.681,1.843
		c-1.197,0-2.166-0.038-3.021-0.152V214.049z M389.474,225.39c0.418,0.076,1.025,0.076,1.672,0.076
		c3.533,0.019,5.452-1.976,5.452-5.434c0.019-3.059-1.691-4.938-5.187-4.938c-0.854,0-1.501,0.075-1.938,0.171V225.39z"/>
	<path d="M400.474,226.682v-12.804h1.824l4.084,6.478c0.932,1.501,1.691,2.831,2.28,4.16l0.057-0.019
		c-0.152-1.71-0.189-3.268-0.189-5.243v-5.376h1.558v12.804h-1.672l-4.065-6.497c-0.893-1.425-1.748-2.888-2.375-4.274l-0.057,0.02
		c0.095,1.614,0.114,3.153,0.114,5.28v5.472H400.474z"/>
	<path d="M415.047,222.655l-1.33,4.027h-1.71l4.351-12.804h1.995l4.369,12.804h-1.767l-1.368-4.027H415.047z M419.246,221.363
		l-1.272-3.686c-0.267-0.836-0.456-1.596-0.646-2.337h-0.057c-0.171,0.741-0.38,1.539-0.627,2.318l-1.254,3.704H419.246z"/>
	<path d="M428.423,220.945v1.216h-4.692v-1.216H428.423z"/>
	<path d="M432.09,213.878v7.599c0,2.85,1.272,4.065,2.982,4.065c1.881,0,3.115-1.254,3.115-4.065v-7.599h1.672v7.484
		c0,3.933-2.07,5.528-4.844,5.528c-2.622,0-4.598-1.481-4.598-5.472v-7.541H432.09z"/>
	<path d="M447.309,226.682v-3.362h-5.737v-1.083l5.509-7.903h1.805v7.694h1.729v1.292h-1.729v3.362H447.309z M447.309,222.028
		v-4.142c0-0.646,0.019-1.292,0.057-1.938h-0.057c-0.38,0.722-0.685,1.254-1.026,1.843l-3.021,4.198v0.038H447.309z"/>
</g>
<g>
</g>
<g>
	<path d="M1.519,3.3h7.35v1.478H3.3v4.536h5.143v1.458H3.3v6.176H1.519V3.3z"/>
	<path d="M11.4,3.502c0.769-0.182,2.004-0.304,3.219-0.304c1.762,0,2.896,0.304,3.726,0.992c0.709,0.526,1.154,1.336,1.154,2.409
		c0,1.336-0.891,2.491-2.308,2.997v0.061c1.296,0.304,2.814,1.377,2.814,3.402c0,1.174-0.466,2.065-1.174,2.733
		c-0.932,0.871-2.471,1.276-4.698,1.276c-1.215,0-2.146-0.081-2.733-0.162V3.502z M13.161,9.091h1.6
		c1.843,0,2.936-0.992,2.936-2.308c0-1.58-1.194-2.228-2.977-2.228c-0.81,0-1.275,0.061-1.559,0.122V9.091z M13.161,15.611
		c0.365,0.061,0.851,0.081,1.479,0.081c1.822,0,3.503-0.668,3.503-2.652c0-1.843-1.6-2.632-3.523-2.632h-1.458V15.611z"/>
	<path d="M22.374,16.947V3.3h1.944l4.353,6.905c0.992,1.6,1.802,3.017,2.43,4.435l0.061-0.021C31,12.796,30.959,11.136,30.959,9.03
		V3.3h1.661v13.647h-1.782l-4.333-6.925c-0.952-1.519-1.863-3.078-2.531-4.556l-0.061,0.021c0.102,1.721,0.122,3.361,0.122,5.629
		v5.832H22.374z"/>
	<path d="M38.734,16.947v-5.791L34.401,3.3h2.024l1.924,3.766c0.506,1.033,0.932,1.863,1.356,2.814h0.041
		c0.365-0.891,0.851-1.782,1.377-2.814L43.087,3.3h1.984l-4.556,7.836v5.812H38.734z"/>
	<path d="M50.355,16.947L45.88,3.3h1.924l2.126,6.723c0.567,1.842,1.073,3.523,1.458,5.103h0.041
		c0.385-1.58,0.931-3.301,1.559-5.083L55.296,3.3h1.883l-4.88,13.647H50.355z"/>
	<path d="M71.271,15.51c0,2.268-0.465,3.625-1.397,4.495c-0.972,0.871-2.349,1.174-3.584,1.174c-1.174,0-2.47-0.284-3.26-0.81
		l0.445-1.377c0.648,0.425,1.66,0.79,2.875,0.79c1.823,0,3.159-0.952,3.159-3.442v-1.073H69.47c-0.527,0.911-1.6,1.64-3.119,1.64
		c-2.43,0-4.171-2.065-4.171-4.799c0-3.321,2.167-5.184,4.434-5.184c1.701,0,2.612,0.871,3.058,1.681h0.041l0.061-1.458h1.579
		c-0.061,0.688-0.081,1.478-0.081,2.673V15.51z M69.49,10.994c0-0.283-0.02-0.546-0.101-0.79c-0.324-1.053-1.174-1.903-2.491-1.903
		c-1.701,0-2.916,1.438-2.916,3.726c0,1.903,0.992,3.523,2.896,3.523c1.113,0,2.105-0.688,2.47-1.843
		c0.101-0.284,0.142-0.628,0.142-0.952V10.994z"/>
	<path d="M75.22,12.351c0.041,2.409,1.559,3.401,3.341,3.401c1.276,0,2.065-0.223,2.713-0.486l0.324,1.255
		c-0.627,0.284-1.721,0.628-3.28,0.628c-2.997,0-4.819-2.005-4.819-4.941c0-2.977,1.762-5.305,4.617-5.305
		c3.199,0,4.029,2.815,4.029,4.617c0,0.365-0.02,0.648-0.061,0.851L75.22,12.351z M80.423,11.075
		c0.021-1.114-0.466-2.896-2.45-2.896c-1.822,0-2.592,1.66-2.733,2.896H80.423z"/>
	<path d="M84.351,9.8c0-1.033-0.02-1.843-0.081-2.653h1.58l0.101,1.6h0.041c0.486-0.911,1.62-1.822,3.24-1.822
		c1.357,0,3.462,0.81,3.462,4.171v5.852h-1.782v-5.649c0-1.579-0.587-2.916-2.268-2.916c-1.154,0-2.065,0.83-2.39,1.822
		c-0.081,0.223-0.122,0.547-0.122,0.83v5.913h-1.782V9.8z"/>
	<path d="M99.578,17.17c-2.632,0-4.698-1.944-4.698-5.042c0-3.28,2.167-5.204,4.859-5.204c2.814,0,4.718,2.045,4.718,5.021
		c0,3.645-2.531,5.224-4.86,5.224H99.578z M99.638,15.833c1.701,0,2.977-1.6,2.977-3.827c0-1.661-0.83-3.746-2.936-3.746
		c-2.085,0-2.997,1.944-2.997,3.807c0,2.146,1.215,3.766,2.936,3.766H99.638z"/>
	<path d="M106.705,9.8c0-1.033-0.041-1.843-0.081-2.653h1.559l0.081,1.58h0.061c0.546-0.932,1.458-1.802,3.098-1.802
		c1.316,0,2.329,0.81,2.754,1.964h0.041c0.304-0.567,0.709-0.972,1.114-1.275c0.587-0.445,1.215-0.688,2.146-0.688
		c1.316,0,3.24,0.851,3.24,4.252v5.771h-1.742v-5.548c0-1.904-0.708-3.017-2.126-3.017c-1.033,0-1.802,0.749-2.126,1.6
		c-0.081,0.263-0.142,0.587-0.142,0.891v6.075h-1.742v-5.872c0-1.58-0.688-2.693-2.045-2.693c-1.093,0-1.924,0.891-2.207,1.782
		c-0.102,0.263-0.142,0.567-0.142,0.871v5.913h-1.742V9.8z"/>
	<path d="M124.442,5.345c-0.668,0-1.114-0.526-1.114-1.154c0-0.628,0.466-1.134,1.154-1.134s1.134,0.506,1.134,1.134
		c0,0.627-0.445,1.154-1.154,1.154H124.442z M123.591,16.947v-9.8h1.782v9.8H123.591z"/>
	<path d="M135.315,16.603c-0.466,0.223-1.499,0.567-2.814,0.567c-2.957,0-4.88-2.004-4.88-5.021s2.065-5.224,5.265-5.224
		c1.053,0,1.984,0.263,2.47,0.526l-0.405,1.357c-0.425-0.223-1.094-0.466-2.065-0.466c-2.248,0-3.462,1.681-3.462,3.726
		c0,2.268,1.458,3.665,3.401,3.665c1.013,0,1.681-0.243,2.187-0.466L135.315,16.603z"/>
	<path d="M148.678,16.603c-0.466,0.223-1.499,0.567-2.814,0.567c-2.957,0-4.88-2.004-4.88-5.021s2.065-5.224,5.265-5.224
		c1.053,0,1.984,0.263,2.47,0.526l-0.405,1.357c-0.425-0.223-1.094-0.466-2.065-0.466c-2.248,0-3.462,1.681-3.462,3.726
		c0,2.268,1.458,3.665,3.401,3.665c1.013,0,1.681-0.243,2.187-0.466L148.678,16.603z"/>
	<path d="M154.631,17.17c-2.632,0-4.698-1.944-4.698-5.042c0-3.28,2.167-5.204,4.859-5.204c2.814,0,4.718,2.045,4.718,5.021
		c0,3.645-2.531,5.224-4.86,5.224H154.631z M154.691,15.833c1.701,0,2.977-1.6,2.977-3.827c0-1.661-0.83-3.746-2.936-3.746
		c-2.085,0-2.997,1.944-2.997,3.807c0,2.146,1.215,3.766,2.936,3.766H154.691z"/>
	<path d="M161.758,9.8c0-1.033-0.041-1.843-0.081-2.653h1.559l0.081,1.58h0.061c0.546-0.932,1.458-1.802,3.098-1.802
		c1.316,0,2.329,0.81,2.754,1.964h0.041c0.304-0.567,0.709-0.972,1.114-1.275c0.587-0.445,1.215-0.688,2.146-0.688
		c1.316,0,3.24,0.851,3.24,4.252v5.771h-1.742v-5.548c0-1.904-0.708-3.017-2.126-3.017c-1.033,0-1.802,0.749-2.126,1.6
		c-0.081,0.263-0.142,0.587-0.142,0.891v6.075h-1.742v-5.872c0-1.58-0.688-2.693-2.045-2.693c-1.093,0-1.924,0.891-2.207,1.782
		c-0.102,0.263-0.142,0.567-0.142,0.871v5.913h-1.742V9.8z"/>
	<path d="M178.645,10.346c0-1.255-0.02-2.268-0.081-3.199h1.6l0.102,1.681h0.041c0.708-1.215,1.883-1.903,3.462-1.903
		c2.39,0,4.172,2.004,4.172,4.981c0,3.523-2.167,5.265-4.455,5.265c-1.316,0-2.43-0.567-3.017-1.539h-0.041v5.325h-1.782V10.346z
		 M180.426,12.958c0,0.243,0.021,0.506,0.081,0.729c0.304,1.235,1.397,2.085,2.653,2.085c1.883,0,2.976-1.539,2.976-3.787
		c0-1.964-1.012-3.645-2.895-3.645c-1.215,0-2.369,0.85-2.713,2.187c-0.041,0.243-0.102,0.506-0.102,0.729V12.958z"/>
	<path d="M194.174,17.17c-2.632,0-4.697-1.944-4.697-5.042c0-3.28,2.166-5.204,4.859-5.204c2.814,0,4.718,2.045,4.718,5.021
		c0,3.645-2.531,5.224-4.859,5.224H194.174z M194.235,15.833c1.701,0,2.977-1.6,2.977-3.827c0-1.661-0.83-3.746-2.936-3.746
		c-2.086,0-2.997,1.944-2.997,3.807c0,2.146,1.215,3.766,2.937,3.766H194.235z"/>
	<path d="M201.302,9.8c0-1.033-0.021-1.843-0.081-2.653h1.579l0.102,1.6h0.04c0.486-0.911,1.62-1.822,3.24-1.822
		c1.356,0,3.462,0.81,3.462,4.171v5.852h-1.781v-5.649c0-1.579-0.588-2.916-2.269-2.916c-1.154,0-2.065,0.83-2.389,1.822
		c-0.081,0.223-0.122,0.547-0.122,0.83v5.913h-1.781V9.8z"/>
	<path d="M213.551,12.351c0.041,2.409,1.56,3.401,3.341,3.401c1.276,0,2.065-0.223,2.714-0.486l0.324,1.255
		c-0.628,0.284-1.722,0.628-3.28,0.628c-2.997,0-4.819-2.005-4.819-4.941c0-2.977,1.762-5.305,4.616-5.305
		c3.199,0,4.029,2.815,4.029,4.617c0,0.365-0.02,0.648-0.061,0.851L213.551,12.351z M218.755,11.075
		c0.021-1.114-0.466-2.896-2.45-2.896c-1.822,0-2.592,1.66-2.733,2.896H218.755z"/>
	<path d="M222.683,9.8c0-1.033-0.021-1.843-0.081-2.653h1.579l0.102,1.6h0.04c0.486-0.911,1.62-1.822,3.24-1.822
		c1.356,0,3.462,0.81,3.462,4.171v5.852h-1.781v-5.649c0-1.579-0.588-2.916-2.269-2.916c-1.154,0-2.065,0.83-2.389,1.822
		c-0.081,0.223-0.122,0.547-0.122,0.83v5.913h-1.781V9.8z"/>
	<path d="M235.985,4.798v2.349h2.552v1.357h-2.552v5.285c0,1.215,0.345,1.903,1.337,1.903c0.486,0,0.77-0.041,1.032-0.122
		l0.081,1.357c-0.344,0.121-0.891,0.243-1.579,0.243c-0.83,0-1.498-0.283-1.924-0.749c-0.485-0.547-0.688-1.417-0.688-2.572V8.504
		h-1.519V7.147h1.519V5.345L235.985,4.798z"/>
	<path d="M240.298,15.145c0.547,0.324,1.478,0.688,2.369,0.688c1.275,0,1.883-0.627,1.883-1.458c0-0.85-0.506-1.316-1.802-1.802
		c-1.782-0.648-2.612-1.6-2.612-2.774c0-1.58,1.296-2.875,3.382-2.875c0.992,0,1.862,0.263,2.389,0.607l-0.425,1.276
		c-0.385-0.223-1.094-0.567-2.005-0.567c-1.053,0-1.62,0.608-1.62,1.336c0,0.831,0.567,1.195,1.843,1.681
		c1.681,0.628,2.571,1.479,2.571,2.957c0,1.741-1.356,2.956-3.645,2.956c-1.073,0-2.065-0.283-2.754-0.688L240.298,15.145z"/>
</g>
<g>
</g>
<g>
</g>
<g>
</g>
<g>
</g>
<g>
</g>
<g>
</g>
</svg>
